<svg id="Livello_1" data-name="Livello 1" xmlns="http://www.w3.org/2000/svg" viewBox="0 0 955.53 1080"><defs><style>.cls-1{fill:#83fa91;}.cls-2{fill:#0ab;}</style></defs><path class="cls-1" d="M992.72,80.94,885.49,9.45a56.51,56.51,0,0,0-75.3,11.89L560.27,337a5.79,5.79,0,0,1-4.54,2.2H524.27a5.83,5.83,0,0,1-4.56-2.2L269.82,21.34A56.24,56.24,0,0,0,194.53,9.45L87.28,80.94a56.23,56.23,0,0,0-25.05,46.79V505.38H214.56v-285a8.13,8.13,0,0,1,14.5-5L431.12,470.5a55.46,55.46,0,0,0,43.47,21H605.43a55.42,55.42,0,0,0,43.44-21L850.94,215.29a8.13,8.13,0,0,1,14.5,5v285h152.33V127.74A56.24,56.24,0,0,0,992.72,80.94Z" transform="translate(-62.23 0)"/><path class="cls-2" d="M992.72,999.06l-107.23,71.49a56.51,56.51,0,0,1-75.3-11.89L560.27,743a5.79,5.79,0,0,0-4.54-2.2H524.27a5.83,5.83,0,0,0-4.56,2.2L269.82,1058.66a56.24,56.24,0,0,1-75.29,11.89L87.28,999.06a56.23,56.23,0,0,1-25.05-46.79V574.62H214.56v285a8.13,8.13,0,0,0,14.5,5L431.12,609.5a55.46,55.46,0,0,1,43.47-21H605.43a55.42,55.42,0,0,1,43.44,21L850.94,864.71a8.13,8.13,0,0,0,14.5-5v-285h152.33V952.26A56.24,56.24,0,0,1,992.72,999.06Z" transform="translate(-62.23 0)"/></svg>